<svg xmlns="http://www.w3.org/2000/svg" width="72" height="72" viewBox="0 0 72 72" fill="none">
<path d="M51.1467 0H20.8533C17.9541 0 15.6137 2.35085 15.6137 5.24481V66.7604C15.6137 69.6518 17.9541 72 20.8533 72H51.1467C54.0407 72 56.3863 69.6518 56.3863 66.7604V5.24481C56.3863 2.35085 54.0407 0 51.1467 0ZM28.525 3.18519H43.4802C43.858 3.18519 44.165 3.74929 44.165 4.4472C44.165 5.14511 43.858 5.71183 43.4802 5.71183H28.525C28.1446 5.71183 27.8429 5.14511 27.8429 4.4472C27.8429 3.74929 28.1446 3.18519 28.525 3.18519ZM36.0026 66.8234C34.1582 66.8234 32.6574 65.3227 32.6574 63.4756C32.6574 61.6285 34.1582 60.1329 36.0026 60.1329C37.8419 60.1329 39.3426 61.6285 39.3426 63.4756C39.3426 65.3227 37.8419 66.8234 36.0026 66.8234ZM52.4612 55.3604H19.5414V8.84979H52.4612V55.3604Z" fill="white"/>
<g clip-path="url(#clip0)">
<path d="M32.5865 20.5002C29.8863 21.3028 27.5549 23.0304 26.001 25.3802C25.7877 25.7652 25.6544 26.1894 25.6093 26.6273V22.4143H24.0105V28.8097H30.4058V27.2108H26.7925C28.5826 23.7671 32.1209 21.5864 36.0017 21.535C40.6041 21.5885 44.6382 24.6254 45.9625 29.0335L47.4974 28.5779C45.6104 22.2297 38.9347 18.6133 32.5865 20.5002Z" fill="white"/>
<path d="M41.5959 35.2574V36.8562H45.2093C43.4192 40.2999 39.8809 42.4807 36 42.5321C31.3976 42.4785 27.3635 39.4416 26.0393 35.0335L24.5044 35.4892C26.3994 41.8349 33.0798 45.4428 39.4255 43.5478C42.2049 42.7178 44.5892 40.9084 46.1366 38.455C46.3024 38.1422 46.3902 37.7939 46.3924 37.4398V41.6527H47.9912V35.2574H41.5959V35.2574Z" fill="white"/>
</g>
<defs>
<clipPath id="clip0">
<rect width="24" height="24" fill="white" transform="translate(24 20)"/>
</clipPath>
</defs>
</svg>